<?xml version="1.0" encoding="UTF-8"?>
<svg width="17px" height="23px" viewBox="0 0 17 23" version="1.1" xmlns="http://www.w3.org/2000/svg" xmlns:xlink="http://www.w3.org/1999/xlink">
    <title>01-Atoms/Icons/24px/Bird</title>
    <g id="01---Desktop" stroke="none" stroke-width="1" fill="none" fill-rule="evenodd">
        <g id="UI-02.Login.registrazione_04.Registrazione.pet.1.1" transform="translate(-827.000000, -548.000000)" fill="#000000">
            <g id="Combined-Shape" transform="translate(823.000000, 547.000000)">
                <path d="M12.1296953,1 C14.4519354,1 16.3671354,1.76128001 17.8253754,3.26080003 C20.6160954,6.13360007 20.7995226,10.7871041 20.803402,11.8556389 L20.8030684,11.9763948 C20.8025827,12.0256796 20.8017786,12.0579714 20.8013754,12.0716802 C20.8013754,15.1532802 18.3341754,16.8083202 16.6695354,17.3996802 L16.6695354,17.3996802 L16.6695354,19.2073602 C16.6695354,21.3616003 14.7552954,23.1136003 12.4013753,23.1136003 C10.0484153,23.1136003 8.13417527,21.3616003 8.13417527,19.2073602 L8.13417527,19.2073602 L8.13417527,17.3977602 C6.46761525,16.8054402 4.00137521,15.1484802 4.00137521,12.0505602 C4.00126001,12.0462402 4.00109835,12.0397717 4.00091668,12.0312171 L4,11.7542427 C4.01231921,10.5286068 4.24210481,5.86835207 6.94377525,3.08896003 C8.29065527,1.70272001 10.0359353,1 12.1296953,1 Z M15.2285754,11.6329601 C15.0596154,11.6761601 14.8301754,11.7548801 14.6448954,11.8182401 C14.0314553,12.0284801 13.2663353,12.2905602 12.4013753,12.2905602 C11.5373753,12.2905602 10.7722553,12.0284801 10.1578553,11.8182401 C9.97353529,11.7548801 9.74409529,11.6761601 9.57513529,11.6329601 C9.57417529,11.6521601 9.57417529,11.6723201 9.57417529,11.6934401 L9.57417529,19.2073602 C9.57417529,20.5667203 10.8423353,21.6736003 12.4013753,21.6736003 C13.9604153,21.6736003 15.2295354,20.5667203 15.2295354,19.2073602 L15.2295354,19.2073602 L15.2294154,11.6624801 L15.2294154,11.6624801 Z M12.1296953,2.44000002 C10.4391353,2.44000002 9.04137528,2.99584003 7.97673527,4.09216004 C5.60729183,6.52937539 5.44644989,10.9084122 5.4404141,11.8495323 L5.44074173,11.9966192 C5.44100844,12.0167402 5.44129353,12.0281942 5.44137523,12.0304001 C5.44137523,14.2345602 7.07721525,15.3481602 8.13417527,15.8377602 L8.13417527,15.8377602 L8.13441865,11.6322475 C8.13733929,11.3568266 8.17530758,10.7309294 8.66889528,10.3782401 C9.22953528,9.97888012 9.90729529,10.2102401 10.6244153,10.4560001 C11.1648953,10.6412801 11.7764153,10.8505601 12.4013753,10.8505601 C13.0272953,10.8505601 13.6378553,10.6412801 14.1792953,10.4560001 C14.8973754,10.2102401 15.5770554,9.97888012 16.1348154,10.3782401 C16.6695354,10.7603201 16.6695354,11.4630401 16.6695354,11.6934401 L16.6695354,15.8406402 C17.7226554,15.3539202 19.3613754,14.2451202 19.3613754,12.0505602 L19.3613754,12.0505602 L19.3619461,12.0155448 C19.3670033,11.5615273 19.3520818,6.89352178 16.7885754,4.26016004 C15.6125754,3.05248003 14.0448953,2.44000002 12.1296953,2.44000002 Z M8.31705527,7.25161609 C8.71737528,7.25161609 9.04281528,7.57609609 9.04281528,7.97737609 C9.04281528,8.3776961 8.71737528,8.7031361 8.31705527,8.7031361 C7.91673526,8.7031361 7.59129526,8.3776961 7.59129526,7.97737609 C7.59129526,7.57609609 7.91673526,7.25161609 8.31705527,7.25161609 Z M16.4770554,7.25161609 C16.8773754,7.25161609 17.2028154,7.57609609 17.2028154,7.97737609 C17.2028154,8.3776961 16.8773754,8.7031361 16.4770554,8.7031361 C16.0767354,8.7031361 15.7512954,8.3776961 15.7512954,7.97737609 C15.7512954,7.57609609 16.0767354,7.25161609 16.4770554,7.25161609 Z"></path>
            </g>
        </g>
    </g>
</svg>