<?xml version="1.0" encoding="UTF-8"?>
<svg width="20px" height="20px" viewBox="0 0 20 20" version="1.1" xmlns="http://www.w3.org/2000/svg" xmlns:xlink="http://www.w3.org/1999/xlink">
    <title>01-Atoms/Icons/24px/Cat</title>
    <g id="01---Desktop" stroke="none" stroke-width="1" fill="none" fill-rule="evenodd">
        <g id="UI-02.Login.registrazione_04.Registrazione.pet.1.1" transform="translate(-825.000000, -423.000000)" fill="#000000">
            <g id="Combined-Shape" transform="translate(823.000000, 421.000000)">
                <path d="M21.1078102,2.04602548 C21.3147662,1.96341653 21.5512874,1.99298183 21.733026,2.12689529 C21.9138952,2.25906961 22.0147645,2.47559202 21.9982428,2.69994053 C21.621722,7.85560859 21.4895484,9.59735309 21.4156355,10.2347464 C21.7956346,11.1895319 21.987808,12.1738828 21.987808,13.163451 C21.987808,18.03564 17.507819,22 12,22 C6.4921937,22 2.01133508,18.03564 2.01133508,13.163451 C2.01133508,12.1730132 2.20437809,11.1886623 2.58437716,10.2347464 C2.5104643,9.59648352 2.37742114,7.85473903 2.00176989,2.69994053 C1.98524819,2.47559202 2.08524794,2.25906961 2.26611707,2.12689529 C2.44785575,1.9938514 2.68350735,1.96428609 2.89220249,2.04602548 L2.89220249,2.04602548 L9.41044745,4.6321204 C11.113052,4.22690176 12.8826129,4.22690176 14.5904348,4.6321204 L14.5904348,4.6321204 Z M20.6217244,3.64168257 L14.8765211,5.92168959 C14.7486953,5.97212453 14.6060869,5.98168978 14.4730438,5.94690706 C12.8478304,5.5286449 11.1513128,5.5286449 9.52783846,5.94690706 C9.39305618,5.98255934 9.25218696,5.97212453 9.12436119,5.92168959 L9.12436119,5.92168959 L3.37828826,3.64168257 C3.40372298,3.98711841 3.43002727,4.34309777 3.45667462,4.70230574 L3.51698798,5.51288597 C3.68489927,7.76248755 3.85078711,9.92390301 3.88611311,10.211268 C3.91133044,10.3373554 3.89915656,10.4703993 3.84785233,10.5912692 C3.49480972,11.4312718 3.31567972,12.2964918 3.31567972,13.163451 C3.31567972,17.3165073 7.21132238,20.6956482 12.0000063,20.6956482 C16.7886903,20.6956482 20.6834634,17.3165073 20.6834634,13.163451 C20.6834634,12.2964918 20.5043334,11.4312718 20.1521603,10.5912692 C20.1008561,10.4703993 20.0886822,10.3373554 20.1138996,10.211268 C20.1492256,9.92390301 20.3151134,7.76248755 20.4830247,5.51288597 L20.5433381,4.70230574 C20.5699854,4.34309777 20.5962897,3.98711841 20.6217244,3.64168257 L20.6217244,3.64168257 Z M12.0000063,12.8695371 C13.0782646,12.8695371 13.9565233,13.7469311 13.9565233,14.8260649 C13.9565233,15.6478065 13.4452202,16.3504174 12.725222,16.6399835 C12.7800044,16.8217232 12.8634825,16.9773758 12.9956561,17.0904197 C13.4704375,17.4956383 14.3843483,17.453899 14.6956519,17.4052032 C15.0565206,17.35129 15.386085,17.5895516 15.4434762,17.9434658 C15.5008674,18.2982495 15.2626071,18.6330331 14.9086949,18.6912942 C14.7321736,18.7208595 13.1756556,18.951295 12.1547886,18.0869445 C12.1043539,18.0443356 12.0521801,17.9965094 12.0000063,17.9425962 C11.9478326,17.9965094 11.8956588,18.0443356 11.8452241,18.0869445 C11.2034865,18.6304244 10.348706,18.7408595 9.75914225,18.7408595 C9.41131701,18.7408595 9.15566546,18.7025985 9.09131779,18.6912942 C8.73653605,18.6321635 8.49653663,18.2965103 8.55566692,17.9408571 C8.61479721,17.5860734 8.94783988,17.3460726 9.30609987,17.4060728 C9.6165339,17.4556382 10.5287056,17.4956383 11.0052262,17.0904197 C11.1365302,16.9773758 11.2200082,16.8217232 11.2756603,16.6399835 C10.5547925,16.3504174 10.0434894,15.6478065 10.0434894,14.8260649 C10.0434894,13.7469311 10.9208785,12.8695371 12.0000063,12.8695371 Z M15.9292307,14.3910491 L16.026953,14.4010201 L18.486947,14.835804 C18.8408592,14.8984129 19.0782499,15.2366748 19.0147718,15.5923281 C18.9591198,15.9079812 18.6843378,16.1305906 18.3739038,16.1305906 C18.3365126,16.1305906 18.2982518,16.1271123 18.2591215,16.1201558 L18.2591215,16.1201558 L15.7991275,15.6853718 C15.4452153,15.622763 15.2078246,15.284501 15.2713027,14.9297173 C15.3339112,14.5758032 15.6652148,14.3375416 16.026953,14.4010201 Z M7.9737553,14.4013679 C8.32505879,14.3404981 8.66679709,14.5752815 8.72940563,14.9300652 C8.79201417,15.2848489 8.55549301,15.6222412 8.20071127,15.6857197 L8.20071127,15.6857197 L5.73984771,16.1205036 C5.70158694,16.1265906 5.66332616,16.1300689 5.62593495,16.1300689 C5.31550092,16.1300689 5.03984942,15.9083291 4.98419739,15.5918063 C4.92158884,15.2370226 5.15811,14.8987607 5.51289175,14.8361518 L5.51289175,14.8361518 Z M12.0000063,14.1738889 C11.6400072,14.1738889 11.347834,14.4660637 11.347834,14.8260649 C11.347834,15.186066 11.6400072,15.4782408 12.0000063,15.4782408 C12.3600055,15.4782408 12.6521787,15.186066 12.6521787,14.8260649 C12.6521787,14.4660637 12.3600055,14.1738889 12.0000063,14.1738889 Z M17.8809485,10.9463138 C18.226165,10.8297917 18.5913815,11.0176183 18.7061639,11.358489 C18.8200766,11.7002291 18.6348597,12.0697955 18.2931214,12.1837089 L18.2931214,12.1837089 L15.6844321,13.0532768 C15.6157366,13.0758855 15.5461716,13.0871899 15.4783457,13.0871899 C15.2044333,13.0871899 14.9505209,12.9141459 14.8592167,12.6411016 C14.745304,12.2993614 14.9305209,11.9297951 15.2722592,11.8158817 L15.2722592,11.8158817 Z M5.30289226,11.3824021 C5.4150659,11.0406619 5.78376065,10.8528352 6.12549895,10.9650095 L6.12549895,10.9650095 L8.72462303,11.8145773 C9.06723089,11.9267516 9.25331739,12.2954484 9.14201332,12.6371885 C9.05157876,12.911972 8.79679677,13.0867551 8.52201483,13.0867551 C8.45505847,13.0867551 8.38636299,13.0763203 8.31940663,13.0545811 L8.31940663,13.0545811 L5.72028254,12.2050133 C5.37767469,12.092839 5.19071862,11.7250118 5.30289226,11.3824021 Z M15.2608679,8.08691365 C15.6208671,8.08691365 15.9130403,8.37908847 15.9130403,8.73908958 C15.9130403,9.09909069 15.6208671,9.3912655 15.2608679,9.3912655 C14.9008688,9.3912655 14.6086956,9.09909069 14.6086956,8.73908958 C14.6086956,8.37908847 14.9008688,8.08691365 15.2608679,8.08691365 Z M8.30436319,8.08691365 C8.66436231,8.08691365 8.95653551,8.37908847 8.95653551,8.73908958 C8.95653551,9.09909069 8.66436231,9.3912655 8.30436319,9.3912655 C7.94436407,9.3912655 7.65219087,9.09909069 7.65219087,8.73908958 C7.65219087,8.37908847 7.94436407,8.08691365 8.30436319,8.08691365 Z"></path>
            </g>
        </g>
    </g>
</svg>