<?xml version="1.0" encoding="UTF-8"?>
<svg width="24px" height="21px" viewBox="0 0 24 21" version="1.1" xmlns="http://www.w3.org/2000/svg" xmlns:xlink="http://www.w3.org/1999/xlink">
    <title>01-Atoms/Icons/24px/Dog</title>
    <g id="01---Desktop" stroke="none" stroke-width="1" fill="none" fill-rule="evenodd">
        <g id="UI-02.Login.registrazione_04.Registrazione.pet.1.1" transform="translate(-592.000000, -423.000000)" fill="#000000">
            <g id="Combined-Shape" transform="translate(592.000000, 421.000000)">
                <path d="M11.9953043,2 C13.1775797,2 14.4308125,2.26609022 15.5849136,3.00801238 C16.3424881,2.91305469 19.8903578,2.71166091 22.4719547,6.93571278 C24.0674525,9.54548396 24.4274569,11.7889898 23.486228,13.2509208 C23.0197875,13.9751036 22.0660366,14.7702438 20.1272302,14.7702438 C20.03749,14.7702438 19.9268799,14.7545914 19.8308788,14.7514609 C19.8360962,15.0071162 19.8507051,15.2450322 19.8507051,15.5111224 C19.8507051,19.7633486 16.8402333,22.403381 11.9953043,22.403381 C7.15141872,22.403381 4.14199047,19.7633486 4.14199047,15.5111224 C4.14199047,15.2450322 4.15555585,15.0081597 4.16077331,14.7514609 C4.0679026,14.7545914 3.96042302,14.7702438 3.87172628,14.7702438 C1.93291986,14.7702438 0.980212511,13.9751036 0.513772001,13.2509208 C-0.427456948,11.7889898 -0.0674525276,9.54548396 1.52804532,6.93571278 C4.10129431,2.7252263 7.63559858,2.9120112 8.40778198,3.00801238 C9.56083961,2.26609022 10.8151159,2 11.9953043,2 Z M11.9953043,18.839859 C9.99075794,18.839859 9.1883133,19.7414352 8.87422249,20.3070074 C10.0189322,20.7442302 11.2189469,20.8381444 11.9953043,20.8381444 C12.7747921,20.8381444 13.9768938,20.7442302 15.1236905,20.3049204 C14.8127302,19.7330873 14.011329,18.839859 11.9953043,18.839859 Z M11.9953043,3.56523661 C6.79767525,3.56523661 5.70722708,10.0609685 5.70722708,15.5111224 C5.70722708,17.5125383 6.47314953,18.7647276 7.49994474,19.5515199 C8.03003821,18.6050735 9.17579141,17.5594954 11.212686,17.3361883 L11.212686,17.3361883 L11.212686,16.672528 C10.15876,16.3427848 9.3865766,15.3838165 9.3865766,14.2411938 C9.3865766,12.8293504 10.5573736,11.6804667 11.9953043,11.6804667 C13.4342785,11.6804667 14.604032,12.8293504 14.604032,14.2411938 C14.604032,15.3838165 13.8328921,16.3427848 12.7779226,16.672528 L12.7779226,16.672528 L12.7779226,17.3361883 C14.8158607,17.5594954 15.9616139,18.6050735 16.4917073,19.5515199 C17.5174591,18.7647276 18.2854685,17.5125383 18.2854685,15.5111224 C18.2854685,10.0609685 17.1939768,3.56523661 11.9953043,3.56523661 Z M11.9953043,13.2457033 C11.4203407,13.2457033 10.9518132,13.6923175 10.9518132,14.2411938 C10.9518132,14.7911136 11.4203407,15.2377278 11.9953043,15.2377278 C12.5713114,15.2377278 13.0387954,14.7911136 13.0387954,14.2411938 C13.0387954,13.6923175 12.5713114,13.2457033 11.9953043,13.2457033 Z M6.64323857,4.69011999 C5.54965992,4.97081909 4.09398988,5.73882852 2.8637139,7.7517228 C1.63552491,9.76148661 1.24838972,11.5009862 1.82961425,12.403606 C2.20214056,12.9806566 3.05154229,13.2373554 4.21712182,13.1747459 C4.47069015,9.06026061 5.39522325,6.38266251 6.64323857,4.69011999 Z M17.3505005,4.69325046 C18.5974723,6.38683648 19.5199184,9.06234759 19.7745302,13.1747459 C20.9442837,13.2383989 21.796816,12.9817001 22.1693423,12.403606 C22.7505668,11.5009862 22.3644751,9.76148661 21.1362861,7.7517228 C19.9070536,5.73987201 18.4451226,4.97394956 17.3505005,4.69325046 Z M9.64797112,8.28870331 C10.0799764,8.28870331 10.4305894,8.63931631 10.4305894,9.07132161 C10.4305894,9.50332692 10.0799764,9.85393992 9.64797112,9.85393992 C9.21492232,9.85393992 8.86535281,9.50332692 8.86535281,9.07132161 C8.86535281,8.63931631 9.21492232,8.28870331 9.64797112,8.28870331 Z M14.343681,8.28870331 C14.7756863,8.28870331 15.1262993,8.63931631 15.1262993,9.07132161 C15.1262993,9.50332692 14.7756863,9.85393992 14.343681,9.85393992 C13.9116756,9.85393992 13.5610626,9.50332692 13.5610626,9.07132161 C13.5610626,8.63931631 13.9116756,8.28870331 14.343681,8.28870331 Z"></path>
            </g>
        </g>
    </g>
</svg>