<?xml version="1.0" encoding="UTF-8"?>
<svg width="16px" height="23px" viewBox="0 0 16 23" version="1.1" xmlns="http://www.w3.org/2000/svg" xmlns:xlink="http://www.w3.org/1999/xlink">
    <title>01-Atoms/Icons/24px/Fish</title>
    <g id="01---Desktop" stroke="none" stroke-width="1" fill="none" fill-rule="evenodd">
        <g id="UI-02.Login.registrazione_04.Registrazione.pet.1.1" transform="translate(-597.000000, -548.000000)" fill="#000000">
            <g id="Combined-Shape" transform="translate(592.000000, 547.000000)">
                <path d="M10.7126843,1.26429984 C11.8627305,0.797363804 13.2472054,0.953969922 14.5096621,1.69568724 C16.3581908,2.78136156 17.6340983,4.83741735 17.9252127,7.19419532 C18.1557984,9.07346874 17.5850988,10.715431 16.8981456,12.2814922 L16.8981456,12.2814922 L19.4124905,12.2814922 C19.6536447,12.2814922 19.8784657,12.4025497 20.0120133,12.6023907 C20.1446,12.8031924 20.1695802,13.0568366 20.0773459,13.2797361 L20.0773459,13.2797361 L17.6754115,19.0443785 C17.5870204,19.254788 17.4044734,19.4123549 17.1815739,19.4661582 C17.125849,19.4805698 17.0672418,19.4872952 17.0105561,19.4872952 C16.8433815,19.4872952 16.68005,19.428688 16.5493847,19.3201206 L16.5493847,19.3201206 L15.05346,18.0739971 C15.0092644,22.8336701 11.6590464,23.0815498 10.9836225,23.0815498 C9.4329337,23.0815498 7.86879406,22.1063644 7.86879406,19.9292511 C7.86879406,17.6080218 9.08225129,16.9249117 9.2206027,16.8538144 C9.57512821,16.6741497 10.0093979,16.8153835 10.1900234,17.1718305 C10.365845,17.5177091 10.234219,17.9394887 9.89698741,18.1268396 C9.84414485,18.1623882 9.30995466,18.5543839 9.30995466,19.9292511 C9.30995466,21.4174897 10.3581588,21.6403892 10.9836225,21.6403892 C11.7753001,21.6403892 13.6161425,21.2839421 13.6161425,17.9827236 C13.6161425,17.6714329 13.635358,17.3668676 13.6709066,17.068067 C12.7341522,16.8144227 9.00250707,15.6124948 9.00250707,12.5255288 C9.00250707,10.5088647 10.2697676,9.64032524 11.1085231,9.06578255 C11.3343049,8.9101372 11.7128498,8.65072829 11.7493592,8.53831777 C11.7003597,8.37114314 11.6676934,8.35577076 11.6552033,8.34904534 C11.3391088,8.19436077 10.3053162,8.56137634 9.55110887,8.82943221 C9.03901647,9.01101844 8.50963014,9.1993301 7.98504768,9.33287764 C6.90321646,9.60765893 5.93187422,9.20605551 5.38903706,8.25873261 C4.94035572,7.47666279 4.80872972,6.27569563 5.37846855,5.69634907 C5.73011173,5.33990201 6.32194835,5.03149364 6.89360872,4.73269301 C7.14917454,4.59914546 7.5344448,4.39738298 7.62667908,4.31667799 C7.72275645,4.22924758 7.81595151,4.0380536 7.92451894,3.8151541 C8.26943671,3.11090695 8.79017607,2.04540888 10.7126843,1.26429984 Z M18.33162,13.7226528 L16.246741,13.7226528 C15.8441768,14.609447 15.4810043,15.4770257 15.2638695,16.3734276 L15.2638695,16.3734276 L16.7204025,17.5878456 L18.33162,13.7226528 Z M13.7794741,2.93892845 C12.8955622,2.41818909 11.9981996,2.29905315 11.2545607,2.59977533 C9.84222331,3.17335724 9.51171714,3.85070273 9.21964193,4.44830399 C9.06015349,4.77400628 8.89586118,5.11123786 8.59321746,5.3840976 C8.38184723,5.57721312 8.06287035,5.74727007 7.56134647,6.0095613 C7.1539784,6.2218923 6.59769041,6.51300674 6.40553567,6.70804381 C6.39881025,6.78970957 6.45069203,7.36425227 6.76966891,7.72454242 C6.90225569,7.87538389 7.13668448,8.06273477 7.63052218,7.93591264 C8.09073279,7.81869824 8.58745281,7.64287665 9.06880045,7.47089815 C9.92004598,7.16825442 10.739586,6.87713998 11.4505585,6.87713998 C11.7512807,6.87713998 12.0337482,6.92998254 12.2902748,7.0558439 C12.5592914,7.1874699 12.9186208,7.46321196 13.1050109,8.03006846 C13.4835558,9.18491849 12.5813892,9.802696 11.9232592,10.2542597 C11.1623264,10.7759598 10.4436677,11.2678759 10.4436677,12.5255288 C10.4436677,14.4682132 13.1405595,15.4097715 13.9600995,15.6499649 C14.2579394,14.5950354 14.7123854,13.6054384 15.1591451,12.635057 C15.9633128,10.8835664 16.7232848,9.22815331 16.4955814,7.37097768 C16.2621134,5.48401807 15.2225562,3.78537011 13.7794741,2.93892845 Z M11.8498561,3.87347306 C12.2504987,3.87347306 12.576201,4.19821459 12.576201,4.59981801 C12.576201,5.00046065 12.2504987,5.32616295 11.8498561,5.32616295 C11.4492135,5.32616295 11.1235112,5.00046065 11.1235112,4.59981801 C11.1235112,4.19821459 11.4492135,3.87347306 11.8498561,3.87347306 Z"></path>
            </g>
        </g>
    </g>
</svg>