<?xml version="1.0" encoding="UTF-8"?>
<svg width="20px" height="19px" viewBox="0 0 20 19" version="1.1" xmlns="http://www.w3.org/2000/svg" xmlns:xlink="http://www.w3.org/1999/xlink">
    <title>01-Atoms/Icons/24px/Hamster</title>
    <g id="01---Desktop" stroke="none" stroke-width="1" fill="none" fill-rule="evenodd">
        <g id="UI-02.Login.registrazione_04.Registrazione.pet.1.1" transform="translate(-825.000000, -676.000000)" fill="#000000">
            <g id="Combined-Shape" transform="translate(823.000000, 673.000000)">
                <path d="M11.9948,3.0004 C14.0298,3.0004 15.9288,3.6284 17.3828,4.7764 C17.4838,4.6014 17.6078,4.4304 17.7578,4.2604 C18.3068,3.6584 18.9958,3.3764 19.6428,3.4834 C20.1548,3.5584 20.6098,3.8434 20.9548,4.3074 C21.4538,4.9804 21.6548,5.9384 21.5058,6.9354 C21.3738,7.7284 21.0528,8.4384 20.6038,8.9374 C20.4548,9.1254 20.2568,9.2934 20.0208,9.4334 C21.3078,10.7064 21.9878,12.2344 21.9878,13.8584 C21.9878,17.2804 18.8648,20.2344 14.3878,21.0554 C14.3108,21.0914 14.2168,21.1014 14.1308,21.1104 C14.0858,21.1154 13.0468,21.3554 11.9948,21.3434 C10.8308,21.3294 9.6458,21.0644 9.6458,21.0644 C5.1438,20.2554 1.9998,17.2914 1.9998,13.8584 C1.9998,12.2574 2.6798,10.7294 3.9688,9.4334 C3.7318,9.2934 3.5328,9.1234 3.3748,8.9264 C2.9108,8.4114 2.5818,7.6804 2.4828,6.9314 C2.3348,5.9384 2.5348,4.9804 3.0348,4.3074 C3.3798,3.8434 3.8338,3.5584 4.3498,3.4824 C5.0158,3.4004 5.7018,3.6814 6.2268,4.2574 C6.3648,4.4124 6.4928,4.5914 6.6018,4.7804 C8.0558,3.6304 9.9588,3.0004 11.9948,3.0004 Z M11.9918,17.0724 C11.5458,17.5344 10.9848,17.8144 10.3728,17.8834 L10.3728,17.8834 L10.3918,17.9884 L10.6938,19.8004 L11.2638,19.8004 L11.2638,19.3304 C11.2638,19.1694 11.3128,19.0234 11.4098,18.8934 C11.5258,18.6964 11.7908,18.6004 11.9948,18.6004 C12.2148,18.6004 12.4308,18.7074 12.5738,18.8864 C12.6758,19.0224 12.7238,19.1654 12.7238,19.3304 L12.7238,19.3304 L12.7238,19.8004 L13.2948,19.8004 L13.6168,17.8834 C12.9988,17.8124 12.4198,17.5234 11.9918,17.0724 Z M11.9948,4.4604 C8.4238,4.4604 5.5178,6.8014 5.3798,9.7904 C5.3808,9.9684 5.3028,10.1494 5.1638,10.2904 C4.0148,11.3684 3.4358,12.5664 3.4358,13.8584 C3.4358,16.3594 5.7648,18.6264 9.1438,19.4594 L9.1438,19.4594 L8.8888,17.8994 L8.6338,17.8994 C8.2318,17.8994 7.9038,17.5724 7.9038,17.1704 C7.9038,16.7684 8.2318,16.4394 8.6338,16.4394 L8.6338,16.4394 L10.0748,16.4394 C10.5788,16.4394 11.0318,16.1114 11.1958,15.6514 C10.9718,15.5354 10.7708,15.3884 10.5928,15.2114 C10.0958,14.6864 9.8248,14.0194 9.8248,13.3304 C9.8248,13.1274 9.8488,12.9254 9.8748,12.7224 C9.9158,12.5104 10.0308,12.3964 10.1148,12.3134 C11.0968,11.4304 12.7638,11.4074 13.8118,12.2994 C13.9308,12.3874 14.0188,12.5234 14.0608,12.6954 C14.1128,12.9014 14.1398,13.1154 14.1398,13.3304 C14.1398,14.0464 13.8668,14.7154 13.3708,15.2114 C13.1708,15.3904 12.9688,15.5334 12.7668,15.6464 C12.9298,16.1084 13.3838,16.4394 13.8898,16.4394 L13.8898,16.4394 L15.3308,16.4394 C15.7328,16.4394 16.0598,16.7684 16.0598,17.1704 C16.0598,17.5724 15.7328,17.8994 15.3308,17.8994 L15.3308,17.8994 L15.0718,17.8994 L14.8198,19.4604 C18.1988,18.6264 20.5278,16.3594 20.5278,13.8584 C20.5278,12.5624 19.9328,11.3314 18.8088,10.2984 C18.6618,10.1504 18.5848,9.9684 18.5848,9.7784 C18.4688,6.8004 15.5748,4.4604 11.9948,4.4604 Z M12.6798,13.2764 C12.2568,13.0414 11.7058,13.0424 11.2848,13.2764 L11.2848,13.2764 L11.2848,13.3304 C11.2848,13.8024 11.5578,14.2254 11.9718,14.4064 C12.4048,14.2264 12.6798,13.8134 12.6798,13.3304 L12.6798,13.3304 Z M8.4038,9.8403 C8.7988,9.8403 9.1188,10.1603 9.1188,10.5553 C9.1188,10.9493 8.7988,11.2693 8.4038,11.2693 C8.0088,11.2693 7.6888,10.9493 7.6888,10.5553 C7.6888,10.1603 8.0088,9.8403 8.4038,9.8403 Z M15.4038,9.8403 C15.7988,9.8403 16.1188,10.1603 16.1188,10.5553 C16.1188,10.9493 15.7988,11.2693 15.4038,11.2693 C15.0088,11.2693 14.6888,10.9493 14.6888,10.5553 C14.6888,10.1603 15.0088,9.8403 15.4038,9.8403 Z M4.6018,4.9644 L4.5068,4.9644 C4.3918,4.9804 4.2778,5.0914 4.2088,5.1824 C3.9478,5.5214 3.8298,6.1464 3.9128,6.7384 C3.9888,7.1514 4.1388,7.5354 4.3348,7.8234 C4.6018,7.1054 4.9898,6.4464 5.4938,5.8584 C5.4098,5.6394 5.2848,5.4324 5.1348,5.2644 C5.0688,5.1984 4.8348,4.9644 4.6018,4.9644 L4.6018,4.9644 Z M19.4428,4.9374 L19.3858,4.9404 C19.1578,4.9404 18.9298,5.1644 18.8478,5.2454 C18.7008,5.4124 18.5778,5.6184 18.4938,5.8344 C19.0008,6.4244 19.3898,7.0874 19.6578,7.8094 C19.8678,7.5244 20.0178,7.1374 20.0738,6.7204 C20.2098,5.7784 19.8518,5.0024 19.4428,4.9374 L19.4428,4.9374 Z"></path>
            </g>
        </g>
    </g>
</svg>