<?xml version="1.0" encoding="UTF-8"?>
<svg width="20px" height="22px" viewBox="0 0 20 22" version="1.1" xmlns="http://www.w3.org/2000/svg" xmlns:xlink="http://www.w3.org/1999/xlink">
    <title>01-Atoms/Icons/24px/Small animals</title>
    <g id="01---Desktop" stroke="none" stroke-width="1" fill="none" fill-rule="evenodd">
        <g id="UI-02.Login.registrazione_04.Registrazione.pet.1.1" transform="translate(-594.000000, -674.000000)" fill="#000000">
            <g id="Combined-Shape" transform="translate(592.000000, 673.000000)">
                <path d="M2.8459906,1.00059756 C3.32933707,1.00965247 6.64261159,1.15262612 8.19392275,3.34360711 C9.42530954,5.08381578 9.97952817,9.44379511 10.1715186,11.3939637 C10.5318553,11.3060075 10.912053,11.2539904 11.3177865,11.2539904 L11.3177865,11.2539904 L12.0403514,11.2539904 C12.4432475,11.2539904 12.8224995,11.3060075 13.1799989,11.3920722 C13.365369,9.50054105 13.9176961,5.10462262 15.1632693,3.34360711 C16.7154751,1.15262612 20.028798,1.00965247 20.5113466,1.00059756 L20.5654823,1 C20.9248732,1 21.228464,1.26859743 21.2710235,1.62609682 C21.3230406,2.07911853 21.744852,6.09294766 20.1162437,7.81707831 C18.9274163,9.0787296 16.6651451,12.4570043 16.0295906,13.4188479 C16.4438359,14.0610227 16.6689281,14.7542689 16.6689281,15.3633419 L16.6689281,15.3633419 L16.7436436,18.9563053 C16.7436436,21.3755737 15.0299164,22.7554457 12.0403514,22.7554457 L12.0403514,22.7554457 L11.3177865,22.7554457 C7.31246923,22.7554457 6.71379962,20.3834656 6.71379962,18.9704918 L6.71379962,18.9704918 L6.68920971,15.3680707 C6.68920971,14.7684553 6.9067358,14.0893957 7.30584887,13.4566785 C6.64570449,12.441872 4.41842655,9.06548888 3.2409484,7.81707831 C1.61328583,6.09294766 2.03509728,2.07911853 2.08711439,1.62609682 C2.12967384,1.26859743 2.43326459,1 2.79170975,1 L2.79170975,1 Z M12.0403514,12.6726388 L11.3177865,12.6726388 C9.21062075,12.6726388 8.10785808,14.4241967 8.10785808,15.3633419 L8.10785808,15.3633419 L8.13244799,18.965763 C8.13244799,19.9427388 8.44171333,21.2176308 10.9697447,21.3263939 L10.9697447,21.3263939 L10.9697447,19.9342269 L10.8307172,19.9342269 C10.4391702,19.9342269 10.121393,19.6164497 10.121393,19.2249028 C10.121393,18.8333558 10.4391702,18.5155786 10.8307172,18.5155786 L10.8307172,18.5155786 L12.5264749,18.5155786 C12.9180218,18.5155786 13.2357991,18.8333558 13.2357991,19.2249028 C13.2357991,19.6164497 12.9180218,19.9342269 12.5264749,19.9342269 L12.5264749,19.9342269 L12.3883931,19.9342269 L12.3883931,21.3254481 C15.1442427,21.2079507 15.3138915,19.7248855 15.3243144,19.0808732 L15.3249952,18.9704918 L15.2502798,15.3775284 C15.2502798,14.4241967 14.1475171,12.6726388 12.0403514,12.6726388 L12.0403514,12.6726388 Z M10.2649602,14.7031975 C10.6593445,14.7031975 10.979959,15.0228663 10.979959,15.4181963 C10.979959,15.8125805 10.6593445,16.1322493 10.2649602,16.1322493 C9.87057598,16.1322493 9.54996144,15.8125805 9.54996144,15.4181963 C9.54996144,15.0228663 9.87057598,14.7031975 10.2649602,14.7031975 Z M13.0929885,14.7031975 C13.4873727,14.7031975 13.8079872,15.0228663 13.8079872,15.4181963 C13.8079872,15.8125805 13.4873727,16.1322493 13.0929885,16.1322493 C12.6986042,16.1322493 12.3779897,15.8125805 12.3779897,15.4181963 C12.3779897,15.0228663 12.6986042,14.7031975 13.0929885,14.7031975 Z M3.44239647,2.46120782 C3.37240982,3.77393045 3.44239647,5.96337777 4.27277865,6.84388553 C5.43039572,8.07054349 7.41555768,11.0345728 8.27620436,12.3463497 C8.43887604,12.2111052 8.6157342,12.0862641 8.80015849,11.9708807 C8.61951726,9.94032204 8.04922062,5.59547496 7.03630568,4.16358587 C6.22105575,3.01258916 4.51489464,2.58510312 3.44239647,2.46120782 Z M19.9157414,2.46593665 C18.9567351,2.57564546 17.1862619,2.94260251 16.3218322,4.16358587 C15.2966223,5.61155298 14.7263256,9.98761032 14.551359,11.9670977 C14.7282172,12.0768065 14.8965634,12.195973 15.0526148,12.3236513 C15.8952919,11.0591627 17.9154472,8.08378421 19.0844134,6.84388553 C19.9138498,5.9652693 19.985728,3.77960504 19.9157414,2.46593665 Z"></path>
            </g>
        </g>
    </g>
</svg>